<svg width="48" height="56" viewBox="0 0 48 56" fill="none" xmlns="http://www.w3.org/2000/svg">
<path d="M40.0043 6.47517C35.4794 2.09084 29.3525 -0.242918 23.0574 0.0200435C11.1835 0.559971 1.62375 9.9588 0.882324 21.8217C0.882324 22.4085 0.882324 23.0131 0.882324 23.5999C1.05337 28.3056 2.8292 32.811 5.91483 36.3679L23.2636 55.2008C23.6599 55.631 24.3394 55.6307 24.7353 55.2L42.4227 35.9589C45.4361 32.3641 47.0969 27.8283 47.1174 23.1376C47.1351 16.8424 44.5628 10.8169 40.0043 6.47517ZM40.111 33.8072L24.7351 50.473C24.339 50.9023 23.6608 50.9021 23.2649 50.4727L8.22659 34.1629C5.64898 31.1878 4.1569 27.4262 3.9943 23.4932C3.9943 22.9834 3.9943 22.4737 3.9943 21.9639C4.61169 11.6817 12.8917 3.52468 23.1819 3.06089H23.9999C35.0417 3.06089 43.9956 12.0068 44.0054 23.0487C43.9996 26.979 42.6224 30.7839 40.111 33.8072Z" fill="#007878"/>
</svg>
