<svg width="94" height="14" viewBox="0 0 94 14" fill="none" xmlns="http://www.w3.org/2000/svg">
<g clip-path="url(#clip0_1_1110)">
<path d="M7.00008 9.68833L4.47641 11.0834L4.95841 8.12863L2.91675 6.0361L5.73846 5.605L7.00008 2.91669L8.2617 5.605L11.0834 6.0361L9.04175 8.12863L9.52375 11.0834L7.00008 9.68833Z" fill="#FFDD45" stroke="#FFDD45" stroke-width="3" stroke-linecap="square"/>
</g>
<g clip-path="url(#clip1_1_1110)">
<path d="M27.0001 9.68833L24.4764 11.0834L24.9584 8.12863L22.9167 6.0361L25.7385 5.605L27.0001 2.91669L28.2617 5.605L31.0834 6.0361L29.0417 8.12863L29.5237 11.0834L27.0001 9.68833Z" fill="#FFDD45" stroke="#FFDD45" stroke-width="3" stroke-linecap="square"/>
</g>
<g clip-path="url(#clip2_1_1110)">
<path d="M47.0001 9.68833L44.4764 11.0834L44.9584 8.12863L42.9167 6.0361L45.7385 5.605L47.0001 2.91669L48.2617 5.605L51.0834 6.0361L49.0417 8.12863L49.5237 11.0834L47.0001 9.68833Z" fill="#C9C9C9" stroke="#C9C9C9" stroke-width="3" stroke-linecap="square"/>
</g>
<g clip-path="url(#clip3_1_1110)">
<path d="M67.0001 9.68833L64.4764 11.0834L64.9584 8.12863L62.9167 6.0361L65.7385 5.605L67.0001 2.91669L68.2617 5.605L71.0834 6.0361L69.0417 8.12863L69.5237 11.0834L67.0001 9.68833Z" fill="#C9C9C9" stroke="#C9C9C9" stroke-width="3" stroke-linecap="square"/>
</g>
<g clip-path="url(#clip4_1_1110)">
<path d="M87.0001 9.68833L84.4764 11.0834L84.9584 8.12863L82.9167 6.0361L85.7385 5.605L87.0001 2.91669L88.2617 5.605L91.0834 6.0361L89.0417 8.12863L89.5237 11.0834L87.0001 9.68833Z" fill="#C9C9C9" stroke="#C9C9C9" stroke-width="3" stroke-linecap="square"/>
</g>
<defs>
<clipPath id="clip0_1_1110">
<rect width="14" height="14" fill="white"/>
</clipPath>
<clipPath id="clip1_1_1110">
<rect width="14" height="14" fill="white" transform="translate(20)"/>
</clipPath>
<clipPath id="clip2_1_1110">
<rect width="14" height="14" fill="white" transform="translate(40)"/>
</clipPath>
<clipPath id="clip3_1_1110">
<rect width="14" height="14" fill="white" transform="translate(60)"/>
</clipPath>
<clipPath id="clip4_1_1110">
<rect width="14" height="14" fill="white" transform="translate(80)"/>
</clipPath>
</defs>
</svg>
