<svg width="18" height="20" viewBox="0 0 18 20" fill="none" xmlns="http://www.w3.org/2000/svg">
<path d="M12.0153 9.27363C13.295 8.34031 14.1284 6.82984 14.1284 5.1282C14.1284 2.30051 11.8279 0 9.00016 0C6.17246 0 3.87196 2.30051 3.87196 5.1282C3.87196 6.82984 4.70528 8.34031 5.98504 9.27363C2.80379 10.491 0.538635 13.5754 0.538635 17.1795C0.538635 18.7347 1.80391 20 3.35914 20H14.6412C16.1964 20 17.4617 18.7347 17.4617 17.1795C17.4617 13.5754 15.1965 10.491 12.0153 9.27363ZM5.41043 5.1282C5.41043 3.14883 7.02078 1.53848 9.00016 1.53848C10.9795 1.53848 12.5899 3.14883 12.5899 5.1282C12.5899 7.10758 10.9795 8.71797 9.00016 8.71797C7.02078 8.71797 5.41043 7.10758 5.41043 5.1282ZM14.6412 18.4615H3.35914C2.65223 18.4615 2.07711 17.8864 2.07711 17.1795C2.07711 13.362 5.18274 10.2564 9.0002 10.2564C12.8177 10.2564 15.9233 13.362 15.9233 17.1795C15.9232 17.8864 15.3481 18.4615 14.6412 18.4615Z" fill="#273142" fill-opacity="0.9"/>
</svg>
