<svg width="12" height="12" viewBox="0 0 12 12" fill="red" xmlns="http://www.w3.org/2000/svg">
<g clip-path="url(#clip0_1_263)">
<path d="M11.8248 1.76944C11.5905 1.53511 11.2106 1.53511 10.9762 1.76944L3.78786 8.95788L1.02477 6.19479C0.790461 5.96046 0.410586 5.96048 0.176234 6.19479C-0.0580938 6.42909 -0.0580938 6.80897 0.176234 7.04329L3.36359 10.2306C3.59783 10.4649 3.97798 10.4647 4.21212 10.2306L11.8248 2.61797C12.0591 2.38366 12.0591 2.00376 11.8248 1.76944Z" fill="white"/>
<path d="M11.8248 1.76944C11.5905 1.53511 11.2106 1.53511 10.9762 1.76944L3.78786 8.95788L1.02477 6.19479C0.790461 5.96046 0.410586 5.96048 0.176234 6.19479C-0.0580938 6.42909 -0.0580938 6.80897 0.176234 7.04329L3.36359 10.2306C3.59783 10.4649 3.97798 10.4647 4.21212 10.2306L11.8248 2.61797C12.0591 2.38366 12.0591 2.00376 11.8248 1.76944Z" stroke="white"/>
</g>
<defs>
<clipPath id="clip0_1_263">
<rect width="12" height="12" fill="white"/>
</clipPath>
</defs>
</svg>
