<svg width="48" height="48" viewBox="0 0 48 48" fill="none" xmlns="http://www.w3.org/2000/svg">
<path d="M8.00024 34H6.00024C4.89567 34 4.00024 33.1046 4.00024 32V16C4.00024 14.8954 4.89567 14 6.00024 14H28.0002C29.1048 14 30.0002 14.8954 30.0002 16V32C30.0002 33.1046 29.1048 34 28.0002 34H16.0002" stroke="#007878" stroke-width="2" stroke-linecap="square"/>
<path d="M40 34H42C43.1046 34 44 33.1046 44 32V25.6351C44 25.2916 43.9115 24.9539 43.7432 24.6546L40.5735 19.0195C40.2192 18.3897 39.5528 18 38.8303 18H32C30.8954 18 30 18.8954 30 20V32C30 33.1046 30.8954 34 32 34V34" stroke="#007878" stroke-width="2" stroke-linecap="square"/>
<path d="M11.9998 38C14.2089 38 15.9998 36.2091 15.9998 34C15.9998 31.7909 14.2089 30 11.9998 30C9.79062 30 7.99976 31.7909 7.99976 34C7.99976 36.2091 9.79062 38 11.9998 38Z" stroke="#007878" stroke-width="2" stroke-linecap="square"/>
<path d="M35.9998 38C38.2089 38 39.9998 36.2091 39.9998 34C39.9998 31.7909 38.2089 30 35.9998 30C33.7906 30 31.9998 31.7909 31.9998 34C31.9998 36.2091 33.7906 38 35.9998 38Z" stroke="#007878" stroke-width="2" stroke-linecap="square"/>
</svg>
